<?xml version="1.0" standalone="no"?>
<!DOCTYPE svg PUBLIC "-//W3C//DTD SVG 20010904//EN"
 "http://www.w3.org/TR/2001/REC-SVG-20010904/DTD/svg10.dtd">
<svg version="1.0" xmlns="http://www.w3.org/2000/svg"
 width="500.000000pt" height="500.000000pt" viewBox="0 0 500.000000 500.000000"
 preserveAspectRatio="xMidYMid meet">

<g transform="translate(0.000000,500.000000) scale(0.100000,-0.100000)"
fill="#000000" stroke="none">
<path d="M1679 3985 c-19 -7 -54 -22 -76 -34 -54 -27 -557 -529 -584 -583 -46
-90 -49 -148 -49 -852 l1 -661 112 2 c116 1 134 3 154 16 9 5 14 2 15 -10 1
-10 5 263 8 607 l5 625 24 55 c37 82 70 127 157 210 115 110 144 142 138 152
-3 5 0 7 8 6 7 -2 14 7 16 19 2 14 8 20 18 16 8 -3 14 1 14 11 0 9 9 21 20 28
11 7 20 23 20 35 0 26 -10 29 -29 11 -10 -11 -11 -9 -5 7 4 11 12 23 16 26 5
3 -5 20 -22 37 -17 18 -29 36 -25 42 3 5 1 19 -6 31 -10 20 -4 28 65 91 41 38
85 82 96 99 l21 29 -38 -1 c-21 0 -54 -6 -74 -14z"/>
<path d="M2380 1243 c35 -2 68 -9 72 -16 6 -9 8 -9 8 1 0 6 8 12 18 12 13 0
14 -2 3 -9 -11 -7 -11 -10 0 -17 8 -5 21 -9 29 -9 22 0 26 -77 5 -95 -9 -7
-15 -28 -15 -51 l0 -39 93 0 c85 0 96 2 115 23 31 33 28 47 -13 47 -19 0 -35
5 -35 10 0 6 16 10 35 10 47 0 45 18 -2 23 -21 2 -14 3 16 2 30 -1 66 4 80 11
14 8 45 14 69 14 33 0 49 6 69 26 14 14 31 23 38 21 6 -3 18 3 25 13 7 10 19
16 26 13 6 -2 15 0 19 6 4 8 -101 10 -357 9 -200 -1 -334 -3 -298 -5z m513
-70 c-7 -2 -21 -2 -30 0 -10 3 -4 5 12 5 17 0 24 -2 18 -5z"/>
</g>
</svg>
